<svg width="367" height="90" version="1.1" xmlns="http://www.w3.org/2000/svg" desc="Created with imagetracer.js version 1.2.6" ><path fill="rgb(254,254,255)" stroke="rgb(254,254,255)" stroke-width="1" opacity="0.8862745098039215" d="M 68.5 4 L 69 54 L 67 53.5 L 68 52.5 L 68.5 4 Z " /><path fill="rgb(254,254,255)" stroke="rgb(254,254,255)" stroke-width="1" opacity="0.8862745098039215" d="M 105.5 25 L 107.5 28 L 105.5 25 Z " /><path fill="rgb(254,254,255)" stroke="rgb(254,254,255)" stroke-width="1" opacity="0.8862745098039215" d="M 131.5 25 L 138 25.5 L 131.5 26 L 131.5 25 Z " /><path fill="rgb(254,254,255)" stroke="rgb(254,254,255)" stroke-width="1" opacity="0.8862745098039215" d="M 36.5 31 L 37 77.5 L 36 77.5 L 36.5 31 Z " /><path fill="rgb(254,254,255)" stroke="rgb(254,254,255)" stroke-width="1" opacity="0.8862745098039215" d="M 141.5 40 L 143.5 43 L 141.5 40 Z " /><path fill="rgb(254,254,255)" stroke="rgb(254,254,255)" stroke-width="1" opacity="0.8862745098039215" d="M 97.5 53 L 101 53.5 L 97.5 54 L 97.5 53 Z " /><path fill="rgb(254,254,255)" stroke="rgb(254,254,255)" stroke-width="1" opacity="0.8862745098039215" d="M 88.5 54 L 91 54.5 L 88.5 55 L 88.5 54 Z " /><path fill="rgb(254,254,255)" stroke="rgb(254,254,255)" stroke-width="1" opacity="0.8862745098039215" d="M 133.5 55 L 134 58.5 L 133 58.5 L 133.5 55 Z " /><path fill="rgb(254,254,255)" stroke="rgb(254,254,255)" stroke-width="1" opacity="0.8862745098039215" d="M 131.5 62 L 129.5 65 L 131.5 62 Z " /><path fill="rgb(254,254,255)" stroke="rgb(254,254,255)" stroke-width="1" opacity="0.8862745098039215" d="M 116.5 67 L 121 67.5 L 116.5 68 L 116.5 67 Z " /><path fill="rgb(254,254,255)" stroke="rgb(254,254,255)" stroke-width="1" opacity="0.8862745098039215" d="M 93.5 69 L 97.5 74 L 93.5 69 Z " /><path fill="rgb(254,254,255)" stroke="rgb(254,254,255)" stroke-width="1" opacity="0.8862745098039215" d="M 142.5 71 L 141.5 73 L 142.5 71 Z " /><path fill="rgb(254,254,255)" stroke="rgb(254,254,255)" stroke-width="1" opacity="0.8862745098039215" d="M 114.5 79 L 123 79.5 L 114.5 80 L 114.5 79 Z " /><path fill="rgb(0,0,0)" stroke="rgb(0,0,0)" stroke-width="1" opacity="0" d="M 0 0 L 366.5 0 L 367 0.5 L 367 80 L 307.5 80 L 307 80.5 L 307 89.5 L 306.5 90 L 0 90 L 0 0 Z M 112 2 L 100 6 Q 92 10 90 20 Q 89 30 93 35 Q 97 41 106 44 L 130 51 L 133 56 L 132 61 L 128 65 L 120 67 L 113 66 L 109 64 Q 103 60 103 52 L 87 54 Q 88 64 93 71 Q 99 77 110 80 L 129 80 L 139 76 Q 147 71 149 61 L 149 53 L 146 45 Q 142 38 135 35 L 115 30 L 108 27 L 105 23 L 106 20 L 112 16 L 124 16 L 126 17 L 130 23 L 131 26 L 147 26 L 146 19 L 143 13 Q 139 5 130 3 L 112 2 Z M 22 3 L 22 79 L 23 79 L 37 79 L 38 31 L 66 79 L 83 79 L 83 79 L 83 3 L 69 3 L 67 5 L 67 50 L 68 51 L 68 52 L 38 5 L 38 3 L 22 3 Z M 147 3 L 164 78 L 166 79 L 182 79 L 197 25 L 210 78 L 212 79 L 228 79 L 246 5 L 246 79 L 283 79 L 297 74 L 306 63 L 310 48 Q 311 24 301 13 L 291 5 L 280 3 L 248 3 L 247 4 L 246 3 L 231 3 L 229 5 L 229 9 L 219 53 L 206 5 L 206 3 L 189 3 L 185 11 L 175 53 L 164 5 L 163 3 L 147 3 Z " /><path fill="rgb(0,0,0)" stroke="rgb(0,0,0)" stroke-width="1" opacity="0" d="M 262.5 17 Q 282.4 14.1 290 23.5 Q 295.3 33.3 293 50.5 L 290 59.5 L 286.5 63 L 281.5 65 L 262.5 65 L 263 63.5 L 263 18.5 L 262.5 17 Z " /><path fill="rgb(0,130,197)" stroke="rgb(0,130,197)" stroke-width="1" opacity="0.8274509803921568" d="M 280.5 4 L 284 4.5 L 280.5 5 L 280.5 4 Z " /><path fill="rgb(0,130,197)" stroke="rgb(0,130,197)" stroke-width="1" opacity="0.8274509803921568" d="M 296.5 9 L 297.5 11 L 296.5 9 Z " /><path fill="rgb(0,130,197)" stroke="rgb(0,130,197)" stroke-width="1" opacity="0.8274509803921568" d="M 300.5 13 L 301.5 15 L 300.5 13 Z " /><path fill="rgb(0,130,197)" stroke="rgb(0,130,197)" stroke-width="1" opacity="0.8274509803921568" d="M 273.5 16 L 279 16.5 L 273.5 17 L 273.5 16 Z " /><path fill="rgb(0,130,197)" stroke="rgb(0,130,197)" stroke-width="1" opacity="0.8274509803921568" d="M 261.5 18 L 262 64.5 L 261 64.5 L 261.5 18 Z " /><path fill="rgb(0,130,197)" stroke="rgb(0,130,197)" stroke-width="1" opacity="0.8274509803921568" d="M 196.5 23 L 196 24.5 L 195.5 26 L 195 24.5 L 196.5 23 Z " /><path fill="rgb(0,130,197)" stroke="rgb(0,130,197)" stroke-width="1" opacity="0.8274509803921568" d="M 293.5 32 L 294 34.5 L 293 34.5 L 293.5 32 Z " /><path fill="rgb(0,130,197)" stroke="rgb(0,130,197)" stroke-width="1" opacity="0.8274509803921568" d="M 308.5 32 L 309 34.5 L 308 34.5 L 308.5 32 Z " /><path fill="rgb(0,130,197)" stroke="rgb(0,130,197)" stroke-width="1" opacity="0.8274509803921568" d="M 293.5 47 L 294 50.5 L 293 50.5 L 293.5 47 Z " /><path fill="rgb(0,130,197)" stroke="rgb(0,130,197)" stroke-width="1" opacity="0.8274509803921568" d="M 308.5 48 L 309 50.5 L 308 50.5 L 308.5 48 Z " /><path fill="rgb(0,130,197)" stroke="rgb(0,130,197)" stroke-width="1" opacity="0.8274509803921568" d="M 173.5 53 L 174.5 55 Q 171.7 55.7 173.5 53 Z " /><path fill="rgb(0,130,197)" stroke="rgb(0,130,197)" stroke-width="1" opacity="0.8274509803921568" d="M 219.5 53 L 220 54.5 L 218 55.5 L 219.5 53 Z " /><path fill="rgb(0,130,197)" stroke="rgb(0,130,197)" stroke-width="1" opacity="0.8274509803921568" d="M 308.5 80 L 365.5 80 L 367 81.5 L 365.5 81 L 308.5 81 L 308.5 80 Z " /><path fill="rgb(0,130,197)" stroke="rgb(0,130,197)" stroke-width="1" opacity="0.8274509803921568" d="M 307.5 82 L 308 87.5 L 307 87.5 L 307.5 82 Z " /><path fill="rgb(0,130,197)" stroke="rgb(0,130,197)" stroke-width="1" opacity="0.8274509803921568" d="M 366.5 86 L 367 88.5 L 365.5 90 L 308.5 90 L 308.5 89 L 365.5 89 L 366.5 86 Z " /><path fill="rgb(254,254,254)" stroke="rgb(254,254,254)" stroke-width="1" opacity="0.996078431372549" d="M 143.5 22 L 146 23.5 L 144.5 23 L 143.5 22 Z " /><path fill="rgb(254,254,254)" stroke="rgb(254,254,254)" stroke-width="1" opacity="0.996078431372549" d="M 142 47 Q 144.7 45.9 144 48.5 L 142 49.5 L 142 47 Z " /><path fill="rgb(254,254,254)" stroke="rgb(254,254,254)" stroke-width="1" opacity="0.996078431372549" d="M 142 56 Q 144.7 54.9 144 57.5 L 145 60 L 142 58.5 L 142 56 Z " /><path fill="rgb(0,124,189)" stroke="rgb(0,124,189)" stroke-width="1" opacity="0.2980392156862745" d="M 147 3 L 162.5 3 L 164 4.5 L 163.5 6 L 163 4 L 148.5 4 L 148 5.5 L 147 5.5 L 147 3 Z " /><path fill="rgb(0,124,189)" stroke="rgb(0,124,189)" stroke-width="1" opacity="0.2980392156862745" d="M 188.5 3 L 206 3.5 L 188.5 4 L 187.5 5 L 188.5 3 Z " /><path fill="rgb(0,124,189)" stroke="rgb(0,124,189)" stroke-width="1" opacity="0.2980392156862745" d="M 230.5 3 L 245.5 3 L 246.5 4 L 247.5 3 L 279.5 3 L 279.5 4 L 247 4 L 247 78 L 283 78.5 L 246 79 L 246 5.5 L 244.5 4 L 230.5 4 L 230 6.5 L 229 6.5 L 230.5 3 Z " /><path fill="rgb(0,124,189)" stroke="rgb(0,124,189)" stroke-width="1" opacity="0.2980392156862745" d="M 284.5 4 L 287 4.5 L 284.5 5 L 284.5 4 Z " /><path fill="rgb(0,124,189)" stroke="rgb(0,124,189)" stroke-width="1" opacity="0.2980392156862745" d="M 289.5 5 L 293 6.5 L 291.5 7 L 289.5 5 Z " /><path fill="rgb(0,124,189)" stroke="rgb(0,124,189)" stroke-width="1" opacity="0.2980392156862745" d="M 148.5 7 L 149 9.5 L 148 9.5 L 148.5 7 Z " /><path fill="rgb(0,124,189)" stroke="rgb(0,124,189)" stroke-width="1" opacity="0.2980392156862745" d="M 294.5 7 L 295.5 9 L 294.5 7 Z " /><path fill="rgb(0,124,189)" stroke="rgb(0,124,189)" stroke-width="1" opacity="0.2980392156862745" d="M 164.5 8 L 165 10.5 L 164 10.5 L 164.5 8 Z " /><path fill="rgb(0,124,189)" stroke="rgb(0,124,189)" stroke-width="1" opacity="0.2980392156862745" d="M 185.5 10 L 186 12.5 L 185 12.5 L 185.5 10 Z " /><path fill="rgb(0,124,189)" stroke="rgb(0,124,189)" stroke-width="1" opacity="0.2980392156862745" d="M 298.5 10 L 300.5 13 L 298.5 10 Z " /><path fill="rgb(0,124,189)" stroke="rgb(0,124,189)" stroke-width="1" opacity="0.2980392156862745" d="M 165.5 12 L 166 14.5 L 165 14.5 L 165.5 12 Z " /><path fill="rgb(0,124,189)" stroke="rgb(0,124,189)" stroke-width="1" opacity="0.2980392156862745" d="M 227.5 13 L 228 15.5 L 227 15.5 L 227.5 13 Z " /><path fill="rgb(0,124,189)" stroke="rgb(0,124,189)" stroke-width="1" opacity="0.2980392156862745" d="M 184.5 14 L 185 16.5 L 184 16.5 L 184.5 14 Z " /><path fill="rgb(0,124,189)" stroke="rgb(0,124,189)" stroke-width="1" opacity="0.2980392156862745" d="M 302.5 15 L 303.5 17 L 302.5 15 Z " /><path fill="rgb(0,124,189)" stroke="rgb(0,124,189)" stroke-width="1" opacity="0.2980392156862745" d="M 150.5 16 L 151 18.5 L 150 18.5 L 150.5 16 Z " /><path fill="rgb(0,124,189)" stroke="rgb(0,124,189)" stroke-width="1" opacity="0.2980392156862745" d="M 262.5 16 L 273 16.5 L 262.5 17 L 262.5 16 Z " /><path fill="rgb(0,124,189)" stroke="rgb(0,124,189)" stroke-width="1" opacity="0.2980392156862745" d="M 166.5 17 L 167 19.5 L 166 19.5 L 166.5 17 Z " /><path fill="rgb(0,124,189)" stroke="rgb(0,124,189)" stroke-width="1" opacity="0.2980392156862745" d="M 279.5 17 L 282 17.5 L 279.5 18 L 279.5 17 Z " /><path fill="rgb(0,124,189)" stroke="rgb(0,124,189)" stroke-width="1" opacity="0.2980392156862745" d="M 226.5 18 L 227 20.5 L 226 20.5 L 226.5 18 Z " /><path fill="rgb(0,124,189)" stroke="rgb(0,124,189)" stroke-width="1" opacity="0.2980392156862745" d="M 262.5 18 L 263 63.5 L 262 63.5 L 262.5 18 Z " /><path fill="rgb(0,124,189)" stroke="rgb(0,124,189)" stroke-width="1" opacity="0.2980392156862745" d="M 283.5 18 L 286 19.5 L 284.5 19 L 283.5 18 Z " /><path fill="rgb(0,124,189)" stroke="rgb(0,124,189)" stroke-width="1" opacity="0.2980392156862745" d="M 241.5 19 L 242 21.5 L 241 21.5 L 241.5 19 Z " /><path fill="rgb(0,124,189)" stroke="rgb(0,124,189)" stroke-width="1" opacity="0.2980392156862745" d="M 151.5 20 L 152 22.5 L 151 22.5 L 151.5 20 Z " /><path fill="rgb(0,124,189)" stroke="rgb(0,124,189)" stroke-width="1" opacity="0.2980392156862745" d="M 287.5 20 L 288.5 22 L 287.5 20 Z " /><path fill="rgb(0,124,189)" stroke="rgb(0,124,189)" stroke-width="1" opacity="0.2980392156862745" d="M 167.5 22 L 168 24.5 L 167 24.5 L 167.5 22 Z " /><path fill="rgb(0,124,189)" stroke="rgb(0,124,189)" stroke-width="1" opacity="0.2980392156862745" d="M 225.5 22 L 226 24.5 L 225 24.5 L 225.5 22 Z " /><path fill="rgb(0,124,189)" stroke="rgb(0,124,189)" stroke-width="1" opacity="0.2980392156862745" d="M 240.5 23 L 241 25.5 L 240 25.5 L 240.5 23 Z " /><path fill="rgb(0,124,189)" stroke="rgb(0,124,189)" stroke-width="1" opacity="0.2980392156862745" d="M 181.5 25 L 182 27.5 L 181 27.5 L 181.5 25 Z " /><path fill="rgb(0,124,189)" stroke="rgb(0,124,189)" stroke-width="1" opacity="0.2980392156862745" d="M 168.5 26 L 169 28.5 L 168 28.5 L 168.5 26 Z " /><path fill="rgb(0,124,189)" stroke="rgb(0,124,189)" stroke-width="1" opacity="0.2980392156862745" d="M 197.5 26 L 198 28.5 L 197 28.5 L 197.5 26 Z " /><path fill="rgb(0,124,189)" stroke="rgb(0,124,189)" stroke-width="1" opacity="0.2980392156862745" d="M 224.5 27 L 225 29.5 L 224 29.5 L 224.5 27 Z " /><path fill="rgb(0,124,189)" stroke="rgb(0,124,189)" stroke-width="1" opacity="0.2980392156862745" d="M 239.5 27 L 240 29.5 L 239 29.5 L 239.5 27 Z " /><path fill="rgb(0,124,189)" stroke="rgb(0,124,189)" stroke-width="1" opacity="0.2980392156862745" d="M 180.5 29 L 181 31.5 L 180 31.5 L 180.5 29 Z " /><path fill="rgb(0,124,189)" stroke="rgb(0,124,189)" stroke-width="1" opacity="0.2980392156862745" d="M 292.5 29 L 293 31.5 L 292 31.5 L 292.5 29 Z " /><path fill="rgb(0,124,189)" stroke="rgb(0,124,189)" stroke-width="1" opacity="0.2980392156862745" d="M 308.5 29 L 309 31.5 L 308 31.5 L 308.5 29 Z " /><path fill="rgb(0,124,189)" stroke="rgb(0,124,189)" stroke-width="1" opacity="0.2980392156862745" d="M 169.5 31 L 170 33.5 L 169 33.5 L 169.5 31 Z " /><path fill="rgb(0,124,189)" stroke="rgb(0,124,189)" stroke-width="1" opacity="0.2980392156862745" d="M 238.5 31 L 239 33.5 L 238 33.5 L 238.5 31 Z " /><path fill="rgb(0,124,189)" stroke="rgb(0,124,189)" stroke-width="1" opacity="0.2980392156862745" d="M 154.5 33 L 155 35.5 L 154 35.5 L 154.5 33 Z " /><path fill="rgb(0,124,189)" stroke="rgb(0,124,189)" stroke-width="1" opacity="0.2980392156862745" d="M 293.5 35 L 294 46.5 L 293 46.5 L 293.5 35 Z " /><path fill="rgb(0,124,189)" stroke="rgb(0,124,189)" stroke-width="1" opacity="0.2980392156862745" d="M 309.5 35 L 310 47.5 L 309 47.5 L 309.5 35 Z " /><path fill="rgb(0,124,189)" stroke="rgb(0,124,189)" stroke-width="1" opacity="0.2980392156862745" d="M 222.5 36 L 223 38.5 L 222 38.5 L 222.5 36 Z " /><path fill="rgb(0,124,189)" stroke="rgb(0,124,189)" stroke-width="1" opacity="0.2980392156862745" d="M 155.5 37 L 156 39.5 L 155 39.5 L 155.5 37 Z " /><path fill="rgb(0,124,189)" stroke="rgb(0,124,189)" stroke-width="1" opacity="0.2980392156862745" d="M 192.5 37 L 193 39.5 L 192 39.5 L 192.5 37 Z " /><path fill="rgb(0,124,189)" stroke="rgb(0,124,189)" stroke-width="1" opacity="0.2980392156862745" d="M 171.5 40 L 172 42.5 L 171 42.5 L 171.5 40 Z " /><path fill="rgb(0,124,189)" stroke="rgb(0,124,189)" stroke-width="1" opacity="0.2980392156862745" d="M 156.5 41 L 157 43.5 L 156 43.5 L 156.5 41 Z " /><path fill="rgb(0,124,189)" stroke="rgb(0,124,189)" stroke-width="1" opacity="0.2980392156862745" d="M 221.5 41 L 222 43.5 L 221 43.5 L 221.5 41 Z " /><path fill="rgb(0,124,189)" stroke="rgb(0,124,189)" stroke-width="1" opacity="0.2980392156862745" d="M 176.5 44 L 177 46.5 L 176 46.5 L 176.5 44 Z " /><path fill="rgb(0,124,189)" stroke="rgb(0,124,189)" stroke-width="1" opacity="0.2980392156862745" d="M 235.5 44 L 236 46.5 L 235 46.5 L 235.5 44 Z " /><path fill="rgb(0,124,189)" stroke="rgb(0,124,189)" stroke-width="1" opacity="0.2980392156862745" d="M 172.5 45 L 173 47.5 L 172 47.5 L 172.5 45 Z " /><path fill="rgb(0,124,189)" stroke="rgb(0,124,189)" stroke-width="1" opacity="0.2980392156862745" d="M 202.5 45 L 203 47.5 L 202 47.5 L 202.5 45 Z " /><path fill="rgb(0,124,189)" stroke="rgb(0,124,189)" stroke-width="1" opacity="0.2980392156862745" d="M 220.5 45 L 221 47.5 L 220 47.5 L 220.5 45 Z " /><path fill="rgb(0,124,189)" stroke="rgb(0,124,189)" stroke-width="1" opacity="0.2980392156862745" d="M 234.5 48 L 235 50.5 L 234 50.5 L 234.5 48 Z " /><path fill="rgb(0,124,189)" stroke="rgb(0,124,189)" stroke-width="1" opacity="0.2980392156862745" d="M 173.5 49 L 175 53.5 L 173 52.5 L 173.5 49 Z " /><path fill="rgb(0,124,189)" stroke="rgb(0,124,189)" stroke-width="1" opacity="0.2980392156862745" d="M 203.5 49 L 204 51.5 L 203 51.5 L 203.5 49 Z " /><path fill="rgb(0,124,189)" stroke="rgb(0,124,189)" stroke-width="1" opacity="0.2980392156862745" d="M 158.5 50 L 159 52.5 L 158 52.5 L 158.5 50 Z " /><path fill="rgb(0,124,189)" stroke="rgb(0,124,189)" stroke-width="1" opacity="0.2980392156862745" d="M 219.5 50 L 220 52.5 L 218.5 55 L 218 53.5 L 219.5 50 Z " /><path fill="rgb(0,124,189)" stroke="rgb(0,124,189)" stroke-width="1" opacity="0.2980392156862745" d="M 292.5 51 L 293 53.5 L 292 53.5 L 292.5 51 Z " /><path fill="rgb(0,124,189)" stroke="rgb(0,124,189)" stroke-width="1" opacity="0.2980392156862745" d="M 308.5 51 L 309 53.5 L 308 53.5 L 308.5 51 Z " /><path fill="rgb(0,124,189)" stroke="rgb(0,124,189)" stroke-width="1" opacity="0.2980392156862745" d="M 233.5 52 L 234 54.5 L 233 54.5 L 233.5 52 Z " /><path fill="rgb(0,124,189)" stroke="rgb(0,124,189)" stroke-width="1" opacity="0.2980392156862745" d="M 159.5 54 L 160 56.5 L 159 56.5 L 159.5 54 Z " /><path fill="rgb(0,124,189)" stroke="rgb(0,124,189)" stroke-width="1" opacity="0.2980392156862745" d="M 187.5 56 L 188 58.5 L 187 58.5 L 187.5 56 Z " /><path fill="rgb(0,124,189)" stroke="rgb(0,124,189)" stroke-width="1" opacity="0.2980392156862745" d="M 232.5 56 L 233 58.5 L 232 58.5 L 232.5 56 Z " /><path fill="rgb(0,124,189)" stroke="rgb(0,124,189)" stroke-width="1" opacity="0.2980392156862745" d="M 289.5 60 L 287.5 63 L 289.5 60 Z " /><path fill="rgb(0,124,189)" stroke="rgb(0,124,189)" stroke-width="1" opacity="0.2980392156862745" d="M 305.5 61 L 306 62.5 L 304 63.5 L 305.5 61 Z " /><path fill="rgb(0,124,189)" stroke="rgb(0,124,189)" stroke-width="1" opacity="0.2980392156862745" d="M 207.5 64 L 208 66.5 L 207 66.5 L 207.5 64 Z " /><path fill="rgb(0,124,189)" stroke="rgb(0,124,189)" stroke-width="1" opacity="0.2980392156862745" d="M 262.5 65 L 281 65.5 L 262.5 66 L 262.5 65 Z " /><path fill="rgb(0,124,189)" stroke="rgb(0,124,189)" stroke-width="1" opacity="0.2980392156862745" d="M 162.5 67 L 163 69.5 L 162 69.5 L 162.5 67 Z " /><path fill="rgb(0,124,189)" stroke="rgb(0,124,189)" stroke-width="1" opacity="0.2980392156862745" d="M 208.5 68 L 209 70.5 L 208 70.5 L 208.5 68 Z " /><path fill="rgb(0,124,189)" stroke="rgb(0,124,189)" stroke-width="1" opacity="0.2980392156862745" d="M 301.5 68 L 296.5 74 L 301.5 68 Z " /><path fill="rgb(0,124,189)" stroke="rgb(0,124,189)" stroke-width="1" opacity="0.2980392156862745" d="M 163.5 71 L 164 73.5 L 163 73.5 L 163.5 71 Z " /><path fill="rgb(0,124,189)" stroke="rgb(0,124,189)" stroke-width="1" opacity="0.2980392156862745" d="M 183.5 71 L 184 73.5 L 183 73.5 L 183.5 71 Z " /><path fill="rgb(0,124,189)" stroke="rgb(0,124,189)" stroke-width="1" opacity="0.2980392156862745" d="M 228.5 73 L 229 75.5 L 228 75.5 L 228.5 73 Z " /><path fill="rgb(0,124,189)" stroke="rgb(0,124,189)" stroke-width="1" opacity="0.2980392156862745" d="M 164.5 76 L 165 78 L 182 78.5 L 165.5 79 L 164.5 76 Z " /><path fill="rgb(0,124,189)" stroke="rgb(0,124,189)" stroke-width="1" opacity="0.2980392156862745" d="M 210.5 76 L 211 78 L 226.5 78 L 227.5 77 L 228 79 L 211.5 79 L 210 77.5 L 210.5 76 Z " /><path fill="rgb(0,124,189)" stroke="rgb(0,124,189)" stroke-width="1" opacity="0.2980392156862745" d="M 366.5 82 L 367 85.5 L 366 85.5 L 366.5 82 Z " /><path fill="rgb(255,255,255)" stroke="rgb(255,255,255)" stroke-width="1" opacity="1" d="M 111.5 3 L 129.5 4 Q 137.5 6.5 142 12.5 L 145 22 L 143 22.5 L 146 24.5 L 131 25 Q 130.8 18.6 125.5 16 L 123.5 15 L 111.5 15 L 105 19.5 L 104 22.5 L 107.5 28 Q 117.8 33.2 131.5 35 Q 140.2 37.8 145 44.5 L 147 48.5 L 148 59.5 Q 146.3 70.3 138.5 75 Q 128.4 81.4 109.5 79 Q 97.6 76.4 92 67.5 L 88 55.5 L 91.5 54 L 100.5 54 L 101.5 53 Q 103 61 108.5 65 Q 112.8 68.2 120.5 68 L 125.5 67 L 132 62.5 L 134 55.5 L 129.5 50 L 122.5 47 L 105.5 43 Q 98.1 40.4 94 34.5 Q 89.8 29.7 91 19.5 Q 92.8 11.8 98.5 8 L 103.5 5 L 111.5 3 Z M 142 47 L 142 50 L 144 49 Q 145 46 142 47 Z M 142 56 L 142 59 L 145 60 L 144 58 Q 145 55 142 56 Z " /><path fill="rgb(255,255,255)" stroke="rgb(255,255,255)" stroke-width="1" opacity="1" d="M 23 4 L 36.5 4 L 39 6.5 L 67 54 L 69 53.5 L 69 4.5 L 69.5 4 L 82 4 L 82 77.5 L 81.5 78 L 67.5 78 L 36.5 29 L 36 78 L 23.5 78 L 23 77.5 L 23 4 Z " /><path fill="rgb(254,254,254)" stroke="rgb(254,254,254)" stroke-width="1" opacity="0.3764705882352941" d="M 111.5 2 L 125 2.5 L 111.5 3 L 111.5 2 Z " /><path fill="rgb(254,254,254)" stroke="rgb(254,254,254)" stroke-width="1" opacity="0.3764705882352941" d="M 22 3 L 38 3.5 L 23.5 4 L 22.5 5 L 22 3 Z " /><path fill="rgb(254,254,254)" stroke="rgb(254,254,254)" stroke-width="1" opacity="0.3764705882352941" d="M 68.5 3 L 82.5 3 L 83 3.5 L 83 79 L 66 78.5 L 82 78 L 82 4.5 L 81.5 4 L 68 4 L 68 49.5 L 67 51.5 L 67.5 53 L 65 49.5 L 67 49.5 L 67 4.5 L 68.5 3 Z " /><path fill="rgb(254,254,254)" stroke="rgb(254,254,254)" stroke-width="1" opacity="0.3764705882352941" d="M 106.5 3 L 109 3.5 L 106.5 4 L 106.5 3 Z " /><path fill="rgb(254,254,254)" stroke="rgb(254,254,254)" stroke-width="1" opacity="0.3764705882352941" d="M 127.5 3 L 130 3.5 L 127.5 4 L 127.5 3 Z " /><path fill="rgb(254,254,254)" stroke="rgb(254,254,254)" stroke-width="1" opacity="0.3764705882352941" d="M 103.5 4 L 105 4.5 Q 97.4 6.9 93.5 13 L 99.5 6 L 103.5 4 Z " /><path fill="rgb(254,254,254)" stroke="rgb(254,254,254)" stroke-width="1" opacity="0.3764705882352941" d="M 131.5 4 Q 139.4 6.1 143 12.5 L 136.5 7 L 131.5 5 L 131.5 4 Z " /><path fill="rgb(254,254,254)" stroke="rgb(254,254,254)" stroke-width="1" opacity="0.3764705882352941" d="M 38.5 5 L 39.5 7 L 38.5 5 Z " /><path fill="rgb(254,254,254)" stroke="rgb(254,254,254)" stroke-width="1" opacity="0.3764705882352941" d="M 22.5 6 L 23 76.5 L 22 76.5 L 22.5 6 Z " /><path fill="rgb(254,254,254)" stroke="rgb(254,254,254)" stroke-width="1" opacity="0.3764705882352941" d="M 41.5 10 L 42.5 12 L 41.5 10 Z " /><path fill="rgb(254,254,254)" stroke="rgb(254,254,254)" stroke-width="1" opacity="0.3764705882352941" d="M 44.5 15 L 45.5 17 L 44.5 15 Z " /><path fill="rgb(254,254,254)" stroke="rgb(254,254,254)" stroke-width="1" opacity="0.3764705882352941" d="M 112.5 15 L 123 15.5 L 112.5 16 L 112.5 15 Z " /><path fill="rgb(254,254,254)" stroke="rgb(254,254,254)" stroke-width="1" opacity="0.3764705882352941" d="M 109.5 16 L 111 16.5 L 106.5 19 L 107.5 17 L 109.5 16 Z " /><path fill="rgb(254,254,254)" stroke="rgb(254,254,254)" stroke-width="1" opacity="0.3764705882352941" d="M 126.5 17 L 128.5 20 L 126.5 17 Z " /><path fill="rgb(254,254,254)" stroke="rgb(254,254,254)" stroke-width="1" opacity="0.3764705882352941" d="M 46.5 18 L 49 21.5 L 47 20.5 L 46.5 18 Z " /><path fill="rgb(254,254,254)" stroke="rgb(254,254,254)" stroke-width="1" opacity="0.3764705882352941" d="M 145.5 18 L 146 20.5 L 145 20.5 L 145.5 18 Z " /><path fill="rgb(254,254,254)" stroke="rgb(254,254,254)" stroke-width="1" opacity="0.3764705882352941" d="M 90.5 19 L 91 27.5 L 90 27.5 L 90.5 19 Z " /><path fill="rgb(254,254,254)" stroke="rgb(254,254,254)" stroke-width="1" opacity="0.3764705882352941" d="M 49.5 23 L 50.5 25 L 49.5 23 Z " /><path fill="rgb(254,254,254)" stroke="rgb(254,254,254)" stroke-width="1" opacity="0.3764705882352941" d="M 130.5 23 L 131 25.5 L 130 25.5 L 130.5 23 Z " /><path fill="rgb(254,254,254)" stroke="rgb(254,254,254)" stroke-width="1" opacity="0.3764705882352941" d="M 146.5 23 L 147 26 L 138 25.5 L 146 25 L 146.5 23 Z " /><path fill="rgb(254,254,254)" stroke="rgb(254,254,254)" stroke-width="1" opacity="0.3764705882352941" d="M 52.5 28 L 53.5 30 L 52.5 28 Z " /><path fill="rgb(254,254,254)" stroke="rgb(254,254,254)" stroke-width="1" opacity="0.3764705882352941" d="M 115.5 30 L 118 30.5 L 115.5 31 L 115.5 30 Z " /><path fill="rgb(254,254,254)" stroke="rgb(254,254,254)" stroke-width="1" opacity="0.3764705882352941" d="M 54.5 31 L 57 34.5 L 55 33.5 L 54.5 31 Z " /><path fill="rgb(254,254,254)" stroke="rgb(254,254,254)" stroke-width="1" opacity="0.3764705882352941" d="M 119.5 31 L 122 31.5 L 119.5 32 L 119.5 31 Z " /><path fill="rgb(254,254,254)" stroke="rgb(254,254,254)" stroke-width="1" opacity="0.3764705882352941" d="M 39.5 34 L 40.5 36 L 39.5 34 Z " /><path fill="rgb(254,254,254)" stroke="rgb(254,254,254)" stroke-width="1" opacity="0.3764705882352941" d="M 93.5 34 L 99.5 41 L 93.5 34 Z " /><path fill="rgb(254,254,254)" stroke="rgb(254,254,254)" stroke-width="1" opacity="0.3764705882352941" d="M 133.5 35 L 141 39.5 L 138.5 38 L 133.5 36 L 133.5 35 Z " /><path fill="rgb(254,254,254)" stroke="rgb(254,254,254)" stroke-width="1" opacity="0.3764705882352941" d="M 57.5 36 L 58.5 38 L 57.5 36 Z " /><path fill="rgb(254,254,254)" stroke="rgb(254,254,254)" stroke-width="1" opacity="0.3764705882352941" d="M 42.5 39 L 43.5 41 L 42.5 39 Z " /><path fill="rgb(254,254,254)" stroke="rgb(254,254,254)" stroke-width="1" opacity="0.3764705882352941" d="M 60.5 41 L 61.5 43 L 60.5 41 Z " /><path fill="rgb(254,254,254)" stroke="rgb(254,254,254)" stroke-width="1" opacity="0.3764705882352941" d="M 44.5 42 L 47 45.5 L 45 44.5 L 44.5 42 Z " /><path fill="rgb(254,254,254)" stroke="rgb(254,254,254)" stroke-width="1" opacity="0.3764705882352941" d="M 144.5 43 L 145.5 45 L 144.5 43 Z " /><path fill="rgb(254,254,254)" stroke="rgb(254,254,254)" stroke-width="1" opacity="0.3764705882352941" d="M 62.5 44 L 65 47.5 L 63 46.5 L 62.5 44 Z " /><path fill="rgb(254,254,254)" stroke="rgb(254,254,254)" stroke-width="1" opacity="0.3764705882352941" d="M 47.5 47 L 48.5 49 L 47.5 47 Z " /><path fill="rgb(254,254,254)" stroke="rgb(254,254,254)" stroke-width="1" opacity="0.3764705882352941" d="M 118.5 47 L 121 47.5 L 118.5 48 L 118.5 47 Z " /><path fill="rgb(254,254,254)" stroke="rgb(254,254,254)" stroke-width="1" opacity="0.3764705882352941" d="M 122.5 48 L 125 48.5 L 122.5 49 L 122.5 48 Z " /><path fill="rgb(254,254,254)" stroke="rgb(254,254,254)" stroke-width="1" opacity="0.3764705882352941" d="M 126.5 49 L 133 53.5 L 132.5 55 L 129.5 51 Q 125.7 50.8 126.5 49 Z " /><path fill="rgb(254,254,254)" stroke="rgb(254,254,254)" stroke-width="1" opacity="0.3764705882352941" d="M 50.5 52 L 51.5 54 L 50.5 52 Z " /><path fill="rgb(254,254,254)" stroke="rgb(254,254,254)" stroke-width="1" opacity="0.3764705882352941" d="M 100.5 52 Q 103.8 50.9 103 53.5 L 101.5 53 L 100.5 52 Z " /><path fill="rgb(254,254,254)" stroke="rgb(254,254,254)" stroke-width="1" opacity="0.3764705882352941" d="M 148.5 52 L 149 60.5 L 148 60.5 L 148.5 52 Z " /><path fill="rgb(254,254,254)" stroke="rgb(254,254,254)" stroke-width="1" opacity="0.3764705882352941" d="M 90.5 53 L 97 53.5 L 90.5 54 L 90.5 53 Z " /><path fill="rgb(254,254,254)" stroke="rgb(254,254,254)" stroke-width="1" opacity="0.3764705882352941" d="M 87.5 54 L 88 56.5 L 87 56.5 L 87.5 54 Z " /><path fill="rgb(254,254,254)" stroke="rgb(254,254,254)" stroke-width="1" opacity="0.3764705882352941" d="M 52.5 55 L 55 58.5 L 53 57.5 L 52.5 55 Z " /><path fill="rgb(254,254,254)" stroke="rgb(254,254,254)" stroke-width="1" opacity="0.3764705882352941" d="M 88.5 58 L 89 60.5 L 88 60.5 L 88.5 58 Z " /><path fill="rgb(254,254,254)" stroke="rgb(254,254,254)" stroke-width="1" opacity="0.3764705882352941" d="M 104.5 58 L 106 60.5 L 104 59.5 L 104.5 58 Z " /><path fill="rgb(254,254,254)" stroke="rgb(254,254,254)" stroke-width="1" opacity="0.3764705882352941" d="M 132.5 59 L 133 60.5 L 126.5 66 L 126.5 65 L 132 60.5 L 132.5 59 Z " /><path fill="rgb(254,254,254)" stroke="rgb(254,254,254)" stroke-width="1" opacity="0.3764705882352941" d="M 55.5 60 L 56.5 62 L 55.5 60 Z " /><path fill="rgb(254,254,254)" stroke="rgb(254,254,254)" stroke-width="1" opacity="0.3764705882352941" d="M 89.5 62 L 91 65.5 L 90 65.5 L 89.5 62 Z " /><path fill="rgb(254,254,254)" stroke="rgb(254,254,254)" stroke-width="1" opacity="0.3764705882352941" d="M 106.5 62 L 107.5 64 L 106.5 62 Z " /><path fill="rgb(254,254,254)" stroke="rgb(254,254,254)" stroke-width="1" opacity="0.3764705882352941" d="M 109.5 64 L 112 65.5 L 110.5 66 L 109.5 64 Z " /><path fill="rgb(254,254,254)" stroke="rgb(254,254,254)" stroke-width="1" opacity="0.3764705882352941" d="M 58.5 65 L 59.5 67 L 58.5 65 Z " /><path fill="rgb(254,254,254)" stroke="rgb(254,254,254)" stroke-width="1" opacity="0.3764705882352941" d="M 146.5 65 L 147 66.5 L 143.5 71 L 145 68.5 L 146.5 65 Z " /><path fill="rgb(254,254,254)" stroke="rgb(254,254,254)" stroke-width="1" opacity="0.3764705882352941" d="M 113.5 66 L 117 66.5 L 113.5 67 L 113.5 66 Z " /><path fill="rgb(254,254,254)" stroke="rgb(254,254,254)" stroke-width="1" opacity="0.3764705882352941" d="M 120.5 66 L 125 66.5 L 120.5 67 L 120.5 66 Z " /><path fill="rgb(254,254,254)" stroke="rgb(254,254,254)" stroke-width="1" opacity="0.3764705882352941" d="M 91.5 67 L 92.5 69 L 91.5 67 Z " /><path fill="rgb(254,254,254)" stroke="rgb(254,254,254)" stroke-width="1" opacity="0.3764705882352941" d="M 60.5 68 L 63 71.5 L 61 70.5 L 60.5 68 Z " /><path fill="rgb(254,254,254)" stroke="rgb(254,254,254)" stroke-width="1" opacity="0.3764705882352941" d="M 93.5 70 L 96.5 74 L 93.5 70 Z " /><path fill="rgb(254,254,254)" stroke="rgb(254,254,254)" stroke-width="1" opacity="0.3764705882352941" d="M 63.5 73 L 64.5 75 L 63.5 73 Z " /><path fill="rgb(254,254,254)" stroke="rgb(254,254,254)" stroke-width="1" opacity="0.3764705882352941" d="M 140.5 73 L 138.5 76 L 140.5 73 Z " /><path fill="rgb(254,254,254)" stroke="rgb(254,254,254)" stroke-width="1" opacity="0.3764705882352941" d="M 98.5 74 L 99.5 76 L 98.5 74 Z " /><path fill="rgb(254,254,254)" stroke="rgb(254,254,254)" stroke-width="1" opacity="0.3764705882352941" d="M 22.5 78 L 37 78.5 L 22.5 79 L 22.5 78 Z " /><path fill="rgb(254,254,254)" stroke="rgb(254,254,254)" stroke-width="1" opacity="0.3764705882352941" d="M 105.5 78 L 108 78.5 L 105.5 79 L 105.5 78 Z " /><path fill="rgb(254,254,254)" stroke="rgb(254,254,254)" stroke-width="1" opacity="0.3764705882352941" d="M 109.5 79 L 114 79.5 L 109.5 80 L 109.5 79 Z " /><path fill="rgb(254,254,254)" stroke="rgb(254,254,254)" stroke-width="1" opacity="0.3764705882352941" d="M 123.5 79 L 129 79.5 L 123.5 80 L 123.5 79 Z " /><path fill="rgb(0,130,198)" stroke="rgb(0,130,198)" stroke-width="1" opacity="1" d="M 149.5 4 L 158 4.5 L 156 5.5 L 158 6 Q 156.8 9.7 162 8 L 162 10 Q 159 9 160 12 Q 163.7 10.5 163 13.5 L 165 13.5 L 164 23.5 L 165 25.5 L 164 28.5 L 169 32.5 L 170 40 Q 167 39 168 42 L 171 43.5 L 170 47.5 L 173 49.5 Q 171 56.4 175 55 Q 175 48.2 178.5 44 L 180 43.5 L 178 42.5 L 179 40 L 181 39.5 Q 177.3 37.8 180.5 36 Q 183.1 36.7 182 34 L 180 33.5 L 182.5 30 Q 184.8 29.3 184 31.5 L 185 32.5 L 185 40 L 187.5 41 L 188 12 Q 185.3 13.1 186 10.5 L 188.5 6 L 191.5 4 L 204.5 4 L 205.5 6 L 190 7 L 190 12 L 192 12 L 192 8 L 198.5 8 L 203.5 9 L 205.5 8 L 207 9.5 L 212 32 L 199 31.5 L 200 28.5 L 198 28.5 L 196.5 23 L 194 24.5 L 195 27.5 L 191.5 39 L 191 33.5 L 191.5 32 L 190 32.5 L 190 40.5 L 191 43.5 L 190 43.5 L 189.5 41 L 188 44.5 L 189 50.5 L 187 58.5 L 184.5 61 Q 181.5 60.5 183 67.5 L 183 69.5 L 182 78 L 168.5 78 L 168 74 L 165.5 74 L 164 72.5 L 161 60.5 L 160 48.5 L 161 46 Q 157.2 47.5 158 44.5 L 157 42 L 160 42 L 160 35.5 L 157 34 L 156 27 Q 151.5 28.8 153 23.5 L 148 5.5 L 149.5 4 Z M 151 7 L 150 10 L 151 10 L 151 7 Z M 154 10 L 155 16 L 155 20 L 160 20 L 160 16 L 156 16 L 156 10 L 154 10 Z " /><path fill="rgb(0,130,198)" stroke="rgb(0,130,198)" stroke-width="1" opacity="1" d="M 231.5 4 L 245 4.5 L 242 12.5 L 242 17.5 L 240 19.5 L 237.5 32 L 235 30.5 Q 234.4 35.1 237 36.5 L 235 39.5 L 236 41.5 L 229 70.5 L 226.5 74 L 224 74 L 223.5 78 L 211 78 L 211 72.5 Q 208 71.5 209 66.5 L 210 64.5 L 208 60.5 L 209 58.5 L 208 56 L 212 54.5 L 210.5 52 L 208 52 L 208 48 L 204 48 L 204 44 L 202.5 44 L 203 42.5 L 201 37.5 L 203 36.5 L 203.5 41 L 204.5 40 L 212 40 L 212.5 36 L 214 37.5 L 218 56 Q 222 57.4 220 50.5 L 221 48 L 224 48 L 224 41.5 L 223 36.5 L 228 14 Q 231.8 14.8 233 11.5 Q 233.7 8.9 231 10 L 231 7.5 L 230 5.5 L 231.5 4 Z M 231 5 Q 230 8 233 7 Q 234 4 231 5 Z M 241 15 L 240 18 L 241 18 L 241 15 Z " /><path fill="rgb(0,130,198)" stroke="rgb(0,130,198)" stroke-width="1" opacity="1" d="M 247 4 L 279.5 4 Q 281 6.5 286.5 5 L 296 9 Q 294.9 11.7 297.5 11 L 297.5 12 L 296 12.5 L 300 14 L 300 20.5 L 301.5 22 L 304 22 Q 302.9 24.7 305.5 24 Q 308.8 27.2 308 34.5 Q 305.5 36 309 37.5 L 307.5 41 L 305 41.5 Q 309 42.9 308 48 L 304 49.5 L 306.5 50 L 308 49.5 L 306 58 Q 303.3 56.9 304 59.5 L 305 63 L 296 66 L 296 72 L 288 72 L 288 77 L 283.5 77 L 282.5 78 L 247 78 L 247 48.5 Q 249.5 47 248 41.5 L 247 38.5 L 248 34.5 L 247 33.5 L 247 22.5 L 248 17.5 L 247 16.5 L 247 4 Z M 269 6 L 268 8 L 285 8 L 284 6 L 269 6 Z M 263 16 L 261 18 L 261 66 L 283 66 Q 285 63 290 64 L 294 51 L 294 32 L 292 28 L 293 25 L 284 17 Q 275 14 263 16 Z M 295 61 L 293 65 L 297 64 Q 298 60 295 61 Z " /><path fill="rgb(0,130,198)" stroke="rgb(0,130,198)" stroke-width="1" opacity="1" d="M 301 16 Q 304 14.8 303 18.5 L 301 19.5 L 301 16 Z " /><path fill="rgb(0,130,198)" stroke="rgb(0,130,198)" stroke-width="1" opacity="1" d="M 316.5 81 L 323.5 82 L 325.5 81 L 326.5 82 L 347.5 82 L 351.5 81 L 352.5 82 L 366 82 L 366 88.5 L 365.5 89 L 308 89 L 308 82 L 315.5 82 L 316.5 81 Z " /><path fill="rgb(0,130,195)" stroke="rgb(0,130,195)" stroke-width="1" opacity="0.996078431372549" d="M 158.5 4 L 161.5 5 L 163 4.5 L 165 12.5 L 163 13.5 Q 163.7 10.5 160 12 L 160 10 Q 163 11 162 8 L 158 8 Q 159.1 5.3 156.5 6 L 156.5 5 L 158.5 4 Z " /><path fill="rgb(0,130,195)" stroke="rgb(0,130,195)" stroke-width="1" opacity="0.996078431372549" d="M 188 4 L 191 4.5 L 188 6 L 188 4 Z " /><path fill="rgb(0,130,195)" stroke="rgb(0,130,195)" stroke-width="1" opacity="0.996078431372549" d="M 230.5 4 L 233 5 Q 234 8 231 7 L 231 10 Q 233.7 8.9 233 11.5 Q 232.5 14.5 228.5 14 L 229 12.5 L 231 5.5 L 230.5 4 Z " /><path fill="rgb(0,130,195)" stroke="rgb(0,130,195)" stroke-width="1" opacity="0.996078431372549" d="M 199.5 6 Q 207.1 4.5 206 8 L 199.5 9 L 198.5 8 L 192 8 Q 193.7 13.2 190 12 L 190 7 L 198.5 7 L 199.5 6 Z " /><path fill="rgb(0,130,195)" stroke="rgb(0,130,195)" stroke-width="1" opacity="0.996078431372549" d="M 268.5 6 L 283.5 6 L 285 7.5 L 267.5 8 L 268.5 6 Z " /><path fill="rgb(0,130,195)" stroke="rgb(0,130,195)" stroke-width="1" opacity="0.996078431372549" d="M 150.5 7 L 152 10.5 L 150 9.5 L 150.5 7 Z " /><path fill="rgb(0,130,195)" stroke="rgb(0,130,195)" stroke-width="1" opacity="0.996078431372549" d="M 154 10 L 156 10 L 156 16 L 160 16 L 160 20 L 155 20 L 155 15.5 L 154 10 Z " /><path fill="rgb(0,130,195)" stroke="rgb(0,130,195)" stroke-width="1" opacity="0.996078431372549" d="M 186 12 L 188 12.5 L 188 40.5 L 186.5 40 L 185 39.5 L 185 32.5 L 184 30 L 181.5 31 L 181 29.5 L 186 12 Z " /><path fill="rgb(0,130,195)" stroke="rgb(0,130,195)" stroke-width="1" opacity="0.996078431372549" d="M 296.5 12 Q 301.5 11.5 302 15.5 L 301 19.5 L 304 18.5 L 306 24 Q 303 25 304 22 L 301.5 22 L 300 20.5 L 300 14 Q 296.2 14.8 296.5 12 Z " /><path fill="rgb(0,130,195)" stroke="rgb(0,130,195)" stroke-width="1" opacity="0.996078431372549" d="M 240.5 15 L 241 17.5 L 240 17.5 L 240.5 15 Z " /><path fill="rgb(0,130,195)" stroke="rgb(0,130,195)" stroke-width="1" opacity="0.996078431372549" d="M 164.5 16 L 169 31.5 L 167.5 31 L 164 28.5 L 165 24.5 L 164 23.5 L 164.5 16 Z " /><path fill="rgb(0,130,195)" stroke="rgb(0,130,195)" stroke-width="1" opacity="0.996078431372549" d="M 247.5 17 L 248 21.5 L 247 21.5 L 247.5 17 Z " /><path fill="rgb(0,130,195)" stroke="rgb(0,130,195)" stroke-width="1" opacity="0.996078431372549" d="M 240.5 19 L 241 21.5 L 240 21.5 L 240.5 19 Z " /><path fill="rgb(0,130,195)" stroke="rgb(0,130,195)" stroke-width="1" opacity="0.996078431372549" d="M 239.5 23 L 240 25.5 L 239 25.5 L 239.5 23 Z " /><path fill="rgb(0,130,195)" stroke="rgb(0,130,195)" stroke-width="1" opacity="0.996078431372549" d="M 291.5 23 L 293 25.5 L 291 24.5 L 291.5 23 Z " /><path fill="rgb(0,130,195)" stroke="rgb(0,130,195)" stroke-width="1" opacity="0.996078431372549" d="M 154 27 Q 157 25.8 156 29.5 L 157 34 L 160 35.5 L 160 42 L 157 42 L 154 27 Z " /><path fill="rgb(0,130,195)" stroke="rgb(0,130,195)" stroke-width="1" opacity="0.996078431372549" d="M 199.5 28 L 200 30.5 L 199 30.5 L 199.5 28 Z " /><path fill="rgb(0,130,195)" stroke="rgb(0,130,195)" stroke-width="1" opacity="0.996078431372549" d="M 236.5 29 Q 234.9 30.8 238 32.5 L 236.5 35 Q 234.3 34.3 235 30.5 L 236.5 29 Z " /><path fill="rgb(0,130,195)" stroke="rgb(0,130,195)" stroke-width="1" opacity="0.996078431372549" d="M 190 32 L 192 32.5 Q 189.8 33.8 191 38.5 Q 193.5 40 190 41.5 Q 191.3 46.8 188.5 48 L 188 44.5 L 190 40.5 L 190 32 Z " /><path fill="rgb(0,130,195)" stroke="rgb(0,130,195)" stroke-width="1" opacity="0.996078431372549" d="M 199.5 32 L 211.5 32 L 213 33.5 L 212 40 L 204.5 40 L 203 41.5 L 202.5 43 L 202 41.5 L 203 36.5 L 200 35.5 L 201 34.5 L 199.5 32 Z " /><path fill="rgb(0,130,195)" stroke="rgb(0,130,195)" stroke-width="1" opacity="0.996078431372549" d="M 180 34 Q 183 33 182 36 Q 179 37 180 34 Z " /><path fill="rgb(0,130,195)" stroke="rgb(0,130,195)" stroke-width="1" opacity="0.996078431372549" d="M 247.5 34 L 248 37.5 L 247 37.5 L 247.5 34 Z " /><path fill="rgb(0,130,195)" stroke="rgb(0,130,195)" stroke-width="1" opacity="0.996078431372549" d="M 307.5 35 L 308.5 37 L 307.5 35 Z " /><path fill="rgb(0,130,195)" stroke="rgb(0,130,195)" stroke-width="1" opacity="0.996078431372549" d="M 236.5 37 L 236 38.5 L 235.5 40 L 235 38.5 L 236.5 37 Z " /><path fill="rgb(0,130,195)" stroke="rgb(0,130,195)" stroke-width="1" opacity="0.996078431372549" d="M 179.5 38 L 180.5 40 Q 177.7 40.7 179.5 38 Z " /><path fill="rgb(0,130,195)" stroke="rgb(0,130,195)" stroke-width="1" opacity="0.996078431372549" d="M 168 40 Q 172.1 38.3 171 42.5 L 169.5 42 Q 166.9 42.7 168 40 Z " /><path fill="rgb(0,130,195)" stroke="rgb(0,130,195)" stroke-width="1" opacity="0.996078431372549" d="M 308.5 40 L 309 46.5 L 308 46.5 Q 308.5 42 305 41.5 L 308.5 40 Z " /><path fill="rgb(0,130,195)" stroke="rgb(0,130,195)" stroke-width="1" opacity="0.996078431372549" d="M 222 41 L 224 41.5 L 224 48 Q 219.9 49.7 221 45.5 L 222 41 Z " /><path fill="rgb(0,130,195)" stroke="rgb(0,130,195)" stroke-width="1" opacity="0.996078431372549" d="M 247.5 41 L 248 47.5 L 247 47.5 L 247.5 41 Z " /><path fill="rgb(0,130,195)" stroke="rgb(0,130,195)" stroke-width="1" opacity="0.996078431372549" d="M 178.5 43 L 180 43.5 L 177.5 45 L 178.5 43 Z " /><path fill="rgb(0,130,195)" stroke="rgb(0,130,195)" stroke-width="1" opacity="0.996078431372549" d="M 203.5 44 L 204 48 L 208 48 Q 205.9 53.2 210.5 52 L 212 54.5 L 208 56 L 209 59.5 L 208 61.5 L 210 65.5 L 208 66.5 Q 206.9 55.6 203 47.5 L 203.5 44 Z " /><path fill="rgb(0,130,195)" stroke="rgb(0,130,195)" stroke-width="1" opacity="0.996078431372549" d="M 171.5 45 L 172 48 L 170 47.5 L 171.5 45 Z " /><path fill="rgb(0,130,195)" stroke="rgb(0,130,195)" stroke-width="1" opacity="0.996078431372549" d="M 158 46 Q 161.7 44.5 161 47.5 L 160 52.5 L 161 56.5 L 160 56.5 L 158 46 Z " /><path fill="rgb(0,130,195)" stroke="rgb(0,130,195)" stroke-width="1" opacity="0.996078431372549" d="M 306.5 48 L 308 48.5 L 304.5 50 L 304.5 49 L 306.5 48 Z " /><path fill="rgb(0,130,195)" stroke="rgb(0,130,195)" stroke-width="1" opacity="0.996078431372549" d="M 307.5 53 L 307 54.5 L 306 60 Q 303 61 304 58 Q 307.3 59.3 306 54.5 L 307.5 53 Z " /><path fill="rgb(0,130,195)" stroke="rgb(0,130,195)" stroke-width="1" opacity="0.996078431372549" d="M 185.5 58 L 186 60.5 L 184 63.5 L 185 65.5 L 183.5 68 L 183 61 L 185 60.5 Q 182.8 59.3 185.5 58 Z " /><path fill="rgb(0,130,195)" stroke="rgb(0,130,195)" stroke-width="1" opacity="0.996078431372549" d="M 290.5 60 L 290 61.5 Q 291.3 65.3 287.5 64 L 287.5 63 Q 289.8 63.8 289 61.5 L 290.5 60 Z " /><path fill="rgb(0,130,195)" stroke="rgb(0,130,195)" stroke-width="1" opacity="0.996078431372549" d="M 294.5 61 Q 298.3 59.8 297 63.5 L 293 65 L 294.5 61 Z " /><path fill="rgb(0,130,195)" stroke="rgb(0,130,195)" stroke-width="1" opacity="0.996078431372549" d="M 303.5 63 L 303 64.5 L 297.5 72 L 288 76 L 288 72 L 296 72 L 296 66.5 L 297.5 66 L 303.5 63 Z " /><path fill="rgb(0,130,195)" stroke="rgb(0,130,195)" stroke-width="1" opacity="0.996078431372549" d="M 211.5 71 L 211 72.5 L 210.5 74 L 210 72.5 L 211.5 71 Z " /><path fill="rgb(0,130,195)" stroke="rgb(0,130,195)" stroke-width="1" opacity="0.996078431372549" d="M 164.5 73 L 168 74 Q 169.9 79.6 165 78 L 164.5 73 Z " /><path fill="rgb(0,130,195)" stroke="rgb(0,130,195)" stroke-width="1" opacity="0.996078431372549" d="M 227.5 73 L 228 75.5 L 227 78 Q 222.1 79.6 224 74 L 227.5 73 Z " /><path fill="rgb(0,130,195)" stroke="rgb(0,130,195)" stroke-width="1" opacity="0.996078431372549" d="M 308.5 81 L 316 81.5 L 308.5 82 L 308.5 81 Z " /><path fill="rgb(0,130,195)" stroke="rgb(0,130,195)" stroke-width="1" opacity="0.996078431372549" d="M 320.5 81 L 324 81.5 L 320.5 82 L 320.5 81 Z " /><path fill="rgb(0,130,195)" stroke="rgb(0,130,195)" stroke-width="1" opacity="0.996078431372549" d="M 326.5 81 L 348 81.5 L 326.5 82 L 326.5 81 Z " /><path fill="rgb(0,130,195)" stroke="rgb(0,130,195)" stroke-width="1" opacity="0.996078431372549" d="M 352.5 81 L 366 81.5 L 352.5 82 L 352.5 81 Z " /><path fill="rgb(2,127,192)" stroke="rgb(2,127,192)" stroke-width="1" opacity="0.8666666666666667" d="M 298.5 11 L 299.5 13 L 298.5 11 Z " /></svg>