<svg width="2000" height="2000" version="1.1" xmlns="http://www.w3.org/2000/svg" desc="Created with imagetracer.js version 1.2.6" ><path fill="rgb(99,153,204)" stroke="rgb(99,153,204)" stroke-width="1" opacity="0.996078431372549" d="M 265.5 295 L 843.5 597 L 861.5 606 L 877 606.5 L 264.5 607 L 259.5 606 L 239.5 596 L 80.5 512 L 59 502 L 59 500.5 L 260.5 299 L 265.5 295 Z " /><path fill="rgb(99,153,204)" stroke="rgb(99,153,204)" stroke-width="1" opacity="0.996078431372549" d="M 51.5 508 L 44.5 516 L 51.5 508 Z " /><path fill="rgb(99,153,204)" stroke="rgb(99,153,204)" stroke-width="1" opacity="0.996078431372549" d="M 634.5 801 L 1235.5 801 L 1980 1189.5 L 1974.5 1191 Q 1973 1188.5 1971.5 1192 L 1361 1191.5 L 1379 1190.5 L 643.5 807 L 634.5 802 L 634.5 801 Z " /><path fill="rgb(99,153,204)" stroke="rgb(99,153,204)" stroke-width="1" opacity="0.996078431372549" d="M 1771.5 1393 L 1971.5 1393 Q 1984.8 1395.2 1992 1403.5 Q 1997.7 1409.3 2000 1418.5 L 2000 1434.5 L 1995 1445.5 L 1960.5 1480 L 1949.5 1489 L 1769 1394.5 L 1771.5 1393 Z " /><path fill="rgb(77,176,195)" stroke="rgb(77,176,195)" stroke-width="1" opacity="0.996078431372549" d="M 360.5 216 L 621.5 216 L 1369 606.5 L 877.5 607 L 876.5 606 L 861.5 606 L 843.5 597 L 265.5 295 L 261 298.5 L 329.5 230 Q 341.7 219.7 360.5 216 Z " /><path fill="rgb(77,176,195)" stroke="rgb(77,176,195)" stroke-width="1" opacity="0.996078431372549" d="M 1236.5 801 L 1639.5 801 L 1653.5 805 L 1669.5 814 L 1995 1139.5 L 2000 1150.5 L 2000 1165.5 L 1998 1172.5 L 1988.5 1185 L 1980.5 1189 L 1977.5 1189 L 1249.5 809 L 1236.5 802 L 1236.5 801 Z " /><path fill="rgb(77,176,195)" stroke="rgb(77,176,195)" stroke-width="1" opacity="0.996078431372549" d="M 1973.5 1190 L 1972.5 1192 L 1973.5 1190 Z " /><path fill="rgb(55,198,186)" stroke="rgb(55,198,186)" stroke-width="1" opacity="0.996078431372549" d="M 622.5 216 L 1151.5 216 L 1738.5 523 L 1741 521.5 L 1711.5 552 Q 1708.9 551.3 1710 554 L 1708 554 L 1708 556 L 1706 556 L 1706 558 L 1704 558 L 1704 559.5 L 1701 561 L 1701 562.5 L 1673.5 590 Q 1665.6 597.6 1654.5 602 L 1634.5 607 L 1369.5 607 L 622.5 217 L 622.5 216 Z " /><path fill="rgb(32,222,176)" stroke="rgb(32,222,176)" stroke-width="1" opacity="0.996078431372549" d="M 1152.5 216 L 1975.5 216 Q 1988.3 219.7 1995 229.5 L 2000 240.5 L 2000 257.5 L 1993 270.5 L 1724.5 539 L 1739 523.5 L 1737.5 522 L 1163.5 223 L 1152.5 217 L 1152.5 216 Z " /><path fill="rgb(0,0,0)" stroke="rgb(0,0,0)" stroke-width="1" opacity="0" d="M 0 0 L 1999.5 0 L 2000 0.5 L 2000 239.5 L 1999 239.5 Q 1996.1 226.9 1986.5 221 L 1975.5 216 L 360.5 216 Q 342.5 219.5 330.5 229 L 5 554.5 L 0.5 565 L 0 0 Z " /><path fill="rgb(0,0,0)" stroke="rgb(0,0,0)" stroke-width="1" opacity="0" d="M 1999.5 258 L 2000 1149.5 L 1999 1149.5 Q 1998.5 1143 1995 1139.5 L 1669.5 814 Q 1657.8 804.2 1639.5 801 L 24.5 801 Q 11.7 804.7 5 814.5 L 0.5 825 L 0 582.5 L 1 582.5 Q 3.2 594.3 11.5 600 Q 18.1 605.4 28.5 607 L 1635.5 607 L 1652.5 603 Q 1664 598.5 1672.5 591 L 1993 270.5 L 1999.5 258 Z " /><path fill="rgb(0,0,0)" stroke="rgb(0,0,0)" stroke-width="1" opacity="0" d="M 0.5 843 L 7 855.5 L 328.5 1177 L 342.5 1186 L 353.5 1190 L 364.5 1192 L 1972.5 1192 Q 1985.7 1189.2 1993 1180.5 Q 1998 1175.5 1999.5 1167 L 2000 1417.5 L 1999 1417.5 Q 1996.8 1405.7 1988.5 1400 Q 1981.9 1394.6 1971.5 1393 L 364.5 1393 L 347.5 1397 Q 336 1401.5 327.5 1409 L 7 1729.5 L 0.5 1742 L 0.5 843 Z " /><path fill="rgb(0,0,0)" stroke="rgb(0,0,0)" stroke-width="1" opacity="0" d="M 1999.5 1435 L 2000 2000 L 0.5 2000 L 0 1999.5 L 0 1760.5 L 1 1760.5 Q 3.9 1773.1 13.5 1779 L 24.5 1784 L 1639.5 1784 Q 1657.8 1780.8 1669.5 1771 L 1995 1445.5 L 1999.5 1435 Z " /><path fill="rgb(195,55,244)" stroke="rgb(195,55,244)" stroke-width="1" opacity="0.996078431372549" d="M 269.5 1467 L 875 1783.5 L 24.5 1784 Q 11.7 1780.3 5 1770.5 L 0 1759.5 L 0 1742.5 L 7 1729.5 L 269.5 1467 Z " /><path fill="rgb(172,79,235)" stroke="rgb(172,79,235)" stroke-width="1" opacity="0.996078431372549" d="M 326.5 1174 L 327.5 1176 L 326.5 1174 Z " /><path fill="rgb(172,79,235)" stroke="rgb(172,79,235)" stroke-width="1" opacity="0.996078431372549" d="M 364.5 1393 L 666 1393.5 L 645 1394.5 L 1390 1783.5 L 875.5 1784 L 270 1468 L 270 1466.5 L 326.5 1410 Q 335.2 1401.7 347.5 1397 L 364.5 1393 Z " /><path fill="rgb(172,79,235)" stroke="rgb(172,79,235)" stroke-width="1" opacity="0.996078431372549" d="M 267.5 1470 L 265.5 1473 L 267.5 1470 Z " /><path fill="rgb(151,100,226)" stroke="rgb(151,100,226)" stroke-width="1" opacity="0.996078431372549" d="M 19.5 803 L 764 1191.5 L 364.5 1192 L 347.5 1188 Q 334.5 1183 325.5 1174 L 7 855.5 L 0 841.5 L 0 825.5 Q 4 813 13.5 806 L 19.5 803 Z " /><path fill="rgb(151,100,226)" stroke="rgb(151,100,226)" stroke-width="1" opacity="0.996078431372549" d="M 666.5 1393 L 1160 1393.5 L 1153 1394.5 L 1719.5 1691 L 1739.5 1700 L 1742 1698.5 L 1669.5 1771 Q 1659.3 1779.3 1644.5 1783 L 1639.5 1784 L 1390.5 1784 L 645 1394.5 L 665.5 1394 L 666.5 1393 Z " /><path fill="rgb(128,123,216)" stroke="rgb(128,123,216)" stroke-width="1" opacity="0.996078431372549" d="M 58.5 501 L 239.5 596 L 259.5 606 L 264 606.5 L 28.5 607 Q 14.4 604.6 7 595.5 L 0 581.5 L 0 565.5 L 5 554.5 L 43.5 516 L 52 508.5 L 58.5 501 Z " /><path fill="rgb(128,123,216)" stroke="rgb(128,123,216)" stroke-width="1" opacity="0.996078431372549" d="M 25.5 801 L 633.5 801 L 1379 1190.5 L 1361.5 1191 L 1360.5 1192 L 764.5 1192 L 21 804 Q 19.7 800.7 24.5 802 L 25.5 801 Z " /><path fill="rgb(128,123,216)" stroke="rgb(128,123,216)" stroke-width="1" opacity="0.996078431372549" d="M 1160.5 1393 L 1771 1393.5 L 1769 1394.5 L 1950.5 1489 L 1960 1480.5 L 1742.5 1698 L 1737.5 1700 L 1153 1394.5 L 1160.5 1393 Z " /></svg>